<?xml version="1.0" encoding="UTF-8" standalone="no"?>
<!-- Created with Inkscape (http://www.inkscape.org/) -->

<svg
   width="48.479881mm"
   height="72.615974mm"
   viewBox="0 0 48.479881 72.615974"
   version="1.1"
   id="svg1"
   xmlns="http://www.w3.org/2000/svg"
   xmlns:svg="http://www.w3.org/2000/svg">
  <defs
     id="defs1" />
  <g
     id="layer1"
     transform="translate(-80.649972,-99.798308)">
    <path
       style="fill:#000000;fill-opacity:0.0547619;stroke:#000000;stroke-width:1.02331;stroke-dasharray:none;stroke-opacity:1"
       id="rect3-1"
       width="63.371658"
       height="88.42556"
       x="72.70546"
       y="15.720099"
       d="m 80.642959,15.720099 47.496661,0 a 7.9374998,7.9374998 45 0 1 7.9375,7.9375 v 80.453191 a 0.03486821,0.03486821 135 0 1 -0.0349,0.0349 H 72.70546 V 23.657599 a 7.9374998,7.9374998 135 0 1 7.937499,-7.9375 z"
       transform="matrix(-0.75285199,0,0,-0.81181553,183.4811,184.76074)" />
    <path
       id="path7-5"
       style="fill:#000000;fill-opacity:0.0547619;stroke:#000000;stroke-width:0.8;stroke-dasharray:none;stroke-opacity:1"
       d="m 104.88964,163.44269 11.98738,-11.98686 H 92.902769 Z" />
    <path
       style="fill:#000000;fill-opacity:0.0547619;stroke:#000000;stroke-width:0.799999;stroke-dasharray:none;stroke-opacity:1"
       d="m 121.63218,129.29639 c -12.0988,-20.9558 -12.87181,-22.2947 -12.87181,-22.2947"
       id="path8-2" />
    <path
       style="fill:#000000;fill-opacity:0.0547619;stroke:#000000;stroke-width:0.799999;stroke-dasharray:none;stroke-opacity:1"
       d="M 88.122738,129.29639 C 100.2216,108.34058 100.99462,107.00168 100.99462,107.00168"
       id="path8-5-7" />
  </g>
</svg>
