<?xml version="1.0" encoding="UTF-8" standalone="no"?>
<!-- Created with Inkscape (http://www.inkscape.org/) -->

<svg
   width="48.479881mm"
   height="72.615982mm"
   viewBox="0 0 48.479881 72.615982"
   version="1.1"
   id="svg1"
   xmlns="http://www.w3.org/2000/svg"
   xmlns:svg="http://www.w3.org/2000/svg">
  <defs
     id="defs1" />
  <g
     id="layer1"
     transform="translate(-80.760056,-19.800363)">
    <path
       style="fill:#000000;fill-opacity:0.0547619;stroke:#000000;stroke-width:1.02331;stroke-dasharray:none;stroke-opacity:1"
       id="rect3"
       width="63.371658"
       height="88.42556"
       x="72.70546"
       y="15.720099"
       d="m 80.642959,15.720099 47.496661,0 a 7.9374998,7.9374998 45 0 1 7.9375,7.9375 v 80.453191 a 0.03486821,0.03486821 135 0 1 -0.0349,0.0349 H 72.70546 V 23.657599 a 7.9374998,7.9374998 135 0 1 7.937499,-7.9375 z"
       transform="matrix(0.75285199,0,0,0.81181553,26.408811,7.4539105)" />
    <path
       id="path7"
       style="fill:#000000;fill-opacity:0.0547619;stroke:#000000;stroke-width:0.8;stroke-dasharray:none;stroke-opacity:1"
       d="M 105.00027,28.771966 93.012887,40.758826 H 116.98714 Z" />
    <path
       style="fill:#000000;fill-opacity:0.0547619;stroke:#000000;stroke-width:0.799999;stroke-dasharray:none;stroke-opacity:1"
       d="M 88.257731,62.918267 C 100.35653,83.874071 101.12954,85.212971 101.12954,85.212971"
       id="path8" />
    <path
       style="fill:#000000;fill-opacity:0.0547619;stroke:#000000;stroke-width:0.799999;stroke-dasharray:none;stroke-opacity:1"
       d="M 121.76717,62.918268 C 109.66831,83.874072 108.89529,85.212972 108.89529,85.212972"
       id="path8-5" />
  </g>
</svg>
